<?xml version="1.0" encoding="UTF-8" standalone="no"?>
<!DOCTYPE svg PUBLIC "-//W3C//DTD SVG 1.1//EN" "http://www.w3.org/Graphics/SVG/1.1/DTD/svg11.dtd">
<svg width="100%" height="100%" viewBox="0 0 28 24" version="1.1" xmlns="http://www.w3.org/2000/svg" xmlns:xlink="http://www.w3.org/1999/xlink" xml:space="preserve" xmlns:serif="http://www.serif.com/" style="fill-rule:evenodd;clip-rule:evenodd;stroke-linejoin:round;stroke-miterlimit:2;">
    <g transform="matrix(0.0148633,0.0148633,-0.0148633,0.0148633,14.0163,-2.86329)">
        <path d="M846.5,153.5C655.1,-37.9 344.9,-37.9 153.5,153.5C-37.9,344.9 -37.9,655.1 153.5,846.5C344.9,1037.9 655.1,1037.9 846.5,846.5C1037.8,655.1 1037.8,344.9 846.5,153.5ZM432.329,925.174C441.391,918.141 450.317,910.432 458.567,902.047C507.12,853.629 534.304,791.417 540.255,726.634C493.866,770.859 423.673,777.081 366.465,746.245C374.039,741.241 381.342,735.56 388.104,728.933C397.571,719.466 405.415,709.188 411.637,697.962C353.752,734.884 273.146,725.552 219.589,671.995C219.183,671.59 218.642,671.049 218.236,670.643C240.687,665.098 261.65,654.278 279.502,638.049C231.761,645.758 179.286,629.934 141.012,591.525C120.725,571.238 106.93,547.164 99.627,522.144C218.236,538.644 339.281,507.132 430.977,426.661C421.104,420.44 411.907,412.866 403.251,404.346C342.662,343.756 340.768,249.084 398.924,192.958C429.218,163.745 469.792,150.491 510.095,153.061C529.164,124.93 542.689,94.094 550.533,62.041C568.115,95.04 572.713,132.503 564.463,166.991C583.127,143.729 597.463,118.167 607.607,91.254C615.315,126.688 616.668,163.204 611.529,198.503C616.397,202.966 621.266,207.564 625.865,212.298C769.63,356.063 831.166,626.012 640.742,816.302C582.316,874.727 509.554,910.838 432.329,925.174Z" style="fill-rule:nonzero;"/>
    </g>
</svg>
